# xmcd CD database file
#
# Track frame offsets:
#	150
#	13749
#	25100
#	35707
#	44827
#	57067
#	69355
#	78964
#	90192
#	100901
#
# Disc length: 1508 seconds
#
# Revision: 2
# Processed by: cddbd v1.5.2PL0 Copyright (c) Steve Scherf et al.
# Submitted via: CDex 1.70beta2
#
DISCID=7405e20a
DTITLE=Various Artist - Golden POPS １９６４年のヒットソング Part 03 - 28
DYEAR=1964
DGENRE=Pop
TTITLE0=おお、プリティ・ウーマン - ロイ・オービソン
TTITLE1=恋と涙の１７才 - レスリー・ゴーア
TTITLE2=恋のウム・ウム - メジャー・ランス
TTITLE3=マイ・ボーイ・ロリポップ - ミリー・スモール
TTITLE4=七つの水仙 - ブラザーズ・フォア
TTITLE5=ワシントン広場の夜は更けて - ヴィレッジ・ストンパーズ
TTITLE6=夢のお月さま - ヴェルヴェッツ
TTITLE7=カム・バック・トゥ・ミー - ロイ・オービソン
TTITLE8=ハートでキッス - コニー・フランシス
TTITLE9=渚のボードウォーク - ドリフターズ
EXTD=YEAR: 1964
EXTT0=
EXTT1=
EXTT2=
EXTT3=
EXTT4=
EXTT5=
EXTT6=
EXTT7=
EXTT8=
EXTT9=
PLAYORDER=
